<svg width="24" height="25" viewBox="0 0 24 25" fill="none" xmlns="http://www.w3.org/2000/svg">
<path d="M16.1306 11.407C14.7749 11.407 14.5872 12.8143 14.5872 12.8143H17.4675C17.4675 12.8143 17.4863 11.407 16.1306 11.407Z" fill="#153147"/>
<path d="M9.60138 12.8128H7.0495V15.256H9.47472C9.84062 15.2462 10.5255 15.1387 10.5255 14.0686C10.5255 12.7981 9.60138 12.8128 9.60138 12.8128Z" fill="#153147"/>
<path d="M12.0005 1.56299C6.20205 1.56299 1.50049 6.46045 1.50049 12.5005C1.50049 18.5405 6.20205 23.438 12.0005 23.438C17.7989 23.438 22.5005 18.5405 22.5005 12.5005C22.5005 6.46045 17.7989 1.56299 12.0005 1.56299ZM14.213 8.28174H17.8271V9.40479H14.213V8.28174ZM12.3849 14.1802C12.3849 16.9634 9.60049 16.8755 9.60049 16.8755H5.04424V7.74463H9.60049C10.988 7.74463 12.0802 8.54053 12.0802 10.1763C12.0802 11.812 10.7442 11.9146 10.7442 11.9146C12.5067 11.9146 12.3849 14.1802 12.3849 14.1802ZM19.1442 14.0288H14.6021C14.6021 15.7231 16.1442 15.6157 16.1442 15.6157C17.6021 15.6157 17.5505 14.6343 17.5505 14.6343H19.0927C19.0927 17.2417 16.0927 17.061 16.0927 17.061C12.4974 17.061 12.7271 13.5698 12.7271 13.5698C12.7271 13.5698 12.7224 10.064 16.0927 10.064C19.6411 10.0688 19.1442 14.0288 19.1442 14.0288V14.0288Z" fill="#153147"/>
<path d="M10.2206 10.3173C10.2206 9.36939 9.60138 9.36938 9.60138 9.36938H7.0495V11.407H9.44188C9.85469 11.407 10.2206 11.2653 10.2206 10.3173Z" fill="#153147"/>
</svg>
