<svg width="25" height="25" viewBox="0 0 25 25" fill="none" xmlns="http://www.w3.org/2000/svg">
<path d="M12.4986 1.56323C6.45859 1.56323 1.56113 6.58765 1.56113 12.7791C1.56113 17.7351 4.69589 21.9343 9.0416 23.4187C9.10255 23.4319 9.16477 23.4385 9.22714 23.4382C9.63242 23.4382 9.78867 23.1404 9.78867 22.8816C9.78867 22.613 9.7789 21.9099 9.77402 20.9724C9.41222 21.0572 9.0421 21.1014 8.6705 21.1042C6.56601 21.1042 6.08749 19.4685 6.08749 19.4685C5.58945 18.1746 4.87167 17.8279 4.87167 17.8279C3.91953 17.1589 4.86679 17.1394 4.94003 17.1394H4.94492C6.04355 17.2371 6.61972 18.3015 6.61972 18.3015C7.1666 19.2585 7.89902 19.5271 8.55331 19.5271C8.98595 19.5184 9.41189 19.4186 9.80331 19.2341C9.90097 18.5115 10.1842 18.0183 10.4967 17.7351C8.06992 17.4519 5.5162 16.49 5.5162 12.1931C5.5162 10.9675 5.94101 9.96655 6.63925 9.1853C6.52695 8.9021 6.15097 7.75952 6.74667 6.21655C6.82658 6.19743 6.9087 6.18922 6.99081 6.19214C7.38632 6.19214 8.27988 6.3435 9.75449 7.36889C11.5463 6.86758 13.4412 6.86758 15.233 7.36889C16.7076 6.3435 17.6012 6.19214 17.9967 6.19214C18.0788 6.18922 18.1609 6.19743 18.2408 6.21655C18.8365 7.75952 18.4605 8.9021 18.3482 9.1853C19.0465 9.97143 19.4713 10.9724 19.4713 12.1931C19.4713 16.4998 16.9127 17.447 14.4762 17.7253C14.8668 18.072 15.2184 18.7556 15.2184 19.8005C15.2184 21.2996 15.2037 22.5105 15.2037 22.8767C15.2037 23.1404 15.3551 23.4382 15.7603 23.4382C15.826 23.4385 15.8914 23.432 15.9557 23.4187C20.3062 21.9343 23.4361 17.7302 23.4361 12.7791C23.4361 6.58765 18.5387 1.56323 12.4986 1.56323Z" fill="#153147"/>
</svg>
