<svg width="45" height="45" viewBox="0 0 45 45" fill="none" xmlns="http://www.w3.org/2000/svg">
<path d="M7.29468 33.7481C6.1521 30.8477 4.21851 25.5417 4.21851 22.498C4.21851 12.4012 13.1245 4.21679 22.4998 4.21679C31.8751 4.21679 40.781 12.4012 40.781 22.498C40.781 25.5417 38.7595 31.0234 37.7048 33.7481" stroke="#153147" stroke-width="2.5" stroke-linecap="round" stroke-linejoin="round"/>
<path d="M9.52698 23.7416L8.32359 24.4449C5.66628 26.0008 5.53706 30.8099 8.02648 35.1866C10.5159 39.5633 14.6957 41.8506 17.353 40.2956L18.5564 39.5923C18.8758 39.4021 19.1079 39.0943 19.2029 38.7348C19.2979 38.3754 19.2482 37.9931 19.0645 37.6699L11.4266 24.2576C11.3365 24.0982 11.2157 23.9583 11.0712 23.8459C10.9267 23.7335 10.7612 23.6509 10.5846 23.6029C10.4079 23.5549 10.2234 23.5424 10.0419 23.5663C9.86032 23.5901 9.68531 23.6497 9.52698 23.7416V23.7416Z" stroke="#153147" stroke-width="2.5" stroke-miterlimit="10"/>
<path d="M35.4748 23.7416L36.6782 24.4449C39.3355 25.9999 39.4682 30.8091 36.9753 35.1858C34.4824 39.5625 30.3061 41.8497 27.6488 40.2947L26.4454 39.5915C26.126 39.4012 25.8939 39.0934 25.7989 38.734C25.7039 38.3746 25.7536 37.9922 25.9373 37.669L33.5752 24.2576C33.6652 24.0982 33.786 23.9583 33.9306 23.8459C34.0751 23.7335 34.2405 23.6509 34.4172 23.6029C34.5939 23.5549 34.7784 23.5424 34.9599 23.5663C35.1414 23.5901 35.3164 23.6497 35.4748 23.7416V23.7416Z" stroke="#153147" stroke-width="2.5" stroke-miterlimit="10"/>
</svg>
