<svg width="45" height="45" viewBox="0 0 45 45" fill="none" xmlns="http://www.w3.org/2000/svg">
<path d="M36.1374 8.56867C32.3818 4.91242 27.4116 2.81535 22.5002 2.81535C17.5889 2.81535 12.6187 4.91242 8.86313 8.56867C4.96167 12.3664 2.81274 17.3173 2.81274 22.5028C2.81274 24.8469 3.58179 27.8721 5.70259 33.5375C7.82339 39.2029 12.0413 41.5751 13.8228 41.9627C14.3334 42.0743 14.932 42.1903 15.469 42.1903C16.3943 42.1911 17.3036 41.9486 18.1057 41.4872L19.3362 40.7841C20.6607 40.0089 21.0474 38.3117 20.2854 36.974L12.6459 23.5646C12.4639 23.2437 12.22 22.9621 11.9284 22.7362C11.6368 22.5102 11.3032 22.3444 10.947 22.2482C10.5909 22.1521 10.2192 22.1276 9.85347 22.1761C9.48776 22.2247 9.13532 22.3453 8.81655 22.531L7.61333 23.2341C7.15088 23.505 6.73535 23.849 6.38286 24.2527C6.33911 24.3041 6.28152 24.3418 6.21695 24.3613C6.15238 24.3808 6.08356 24.3813 6.0187 24.3627C5.95385 24.3442 5.89569 24.3074 5.85117 24.2567C5.80665 24.2061 5.77765 24.1437 5.76763 24.077C5.67904 23.5568 5.63143 23.0305 5.62524 22.5028C5.62524 18.0811 7.47095 13.8474 10.8249 10.584C14.0627 7.434 18.3158 5.62785 22.5002 5.62785C26.6847 5.62785 30.9377 7.434 34.1756 10.584C37.5295 13.8474 39.3752 18.0811 39.3752 22.5028C39.3673 23.0306 39.3179 23.5569 39.2276 24.077C39.2176 24.1437 39.1886 24.2061 39.144 24.2567C39.0995 24.3074 39.0414 24.3442 38.9765 24.3627C38.9117 24.3813 38.8428 24.3808 38.7783 24.3613C38.7137 24.3418 38.6561 24.3041 38.6124 24.2527C38.2599 23.849 37.8443 23.505 37.3819 23.2341L36.1787 22.531C35.8599 22.3453 35.5074 22.2247 35.1417 22.1761C34.776 22.1276 34.4043 22.1521 34.0482 22.2482C33.692 22.3444 33.3584 22.5102 33.0668 22.7362C32.7752 22.9621 32.5313 23.2437 32.3493 23.5646L24.7151 36.974C23.9531 38.3117 24.3398 40.0089 25.6643 40.7841L26.8948 41.4872C27.6969 41.9486 28.6062 42.1911 29.5315 42.1903C30.0685 42.1903 30.667 42.0743 31.1777 41.9627C32.9592 41.5751 37.178 39.2021 39.2979 33.5375C41.4178 27.873 42.1877 24.8469 42.1877 22.5028C42.1877 17.3173 40.0388 12.3664 36.1374 8.56867Z" fill="#153147"/>
</svg>
