<svg width="45" height="45" viewBox="0 0 45 45" fill="none" xmlns="http://www.w3.org/2000/svg">
<path d="M22.99 8.90048C22.8592 8.77531 22.6851 8.70544 22.504 8.70544C22.3229 8.70544 22.1488 8.77531 22.0179 8.90048L5.83728 24.3578C5.76856 24.4235 5.71389 24.5025 5.67658 24.59C5.63927 24.6775 5.62008 24.7716 5.62019 24.8667L5.61755 39.3739C5.61755 40.1198 5.91387 40.8352 6.44132 41.3626C6.96876 41.8901 7.68413 42.1864 8.43005 42.1864H16.8763C17.2493 42.1864 17.607 42.0383 17.8707 41.7745C18.1344 41.5108 18.2826 41.1531 18.2826 40.7802V28.827C18.2826 28.6406 18.3567 28.4617 18.4885 28.3299C18.6204 28.198 18.7992 28.1239 18.9857 28.1239H26.017C26.2034 28.1239 26.3823 28.198 26.5142 28.3299C26.646 28.4617 26.7201 28.6406 26.7201 28.827V40.7802C26.7201 41.1531 26.8682 41.5108 27.132 41.7745C27.3957 42.0383 27.7534 42.1864 28.1263 42.1864H36.5691C37.315 42.1864 38.0304 41.8901 38.5579 41.3626C39.0853 40.8352 39.3816 40.1198 39.3816 39.3739V24.8667C39.3817 24.7716 39.3625 24.6775 39.3252 24.59C39.2879 24.5025 39.2332 24.4235 39.1645 24.3578L22.99 8.90048Z" fill="#153147"/>
<path d="M43.146 21.4585L36.5718 15.169V5.62497C36.5718 5.25201 36.4236 4.89432 36.1599 4.6306C35.8962 4.36688 35.5385 4.21872 35.1655 4.21872H30.9468C30.5738 4.21872 30.2161 4.36688 29.9524 4.6306C29.6887 4.89432 29.5405 5.25201 29.5405 5.62497V8.43747L24.4499 3.57009C23.9735 3.08845 23.2651 2.81247 22.4996 2.81247C21.7367 2.81247 21.0301 3.08845 20.5537 3.57097L1.85937 21.4567C1.31269 21.9841 1.24414 22.8515 1.7416 23.4228C1.86652 23.567 2.01947 23.6843 2.19116 23.7675C2.36284 23.8507 2.54966 23.8981 2.74025 23.9068C2.93083 23.9156 3.1212 23.8854 3.29976 23.8182C3.47832 23.751 3.64134 23.6482 3.7789 23.516L22.0162 6.08903C22.1471 5.96386 22.3212 5.894 22.5023 5.894C22.6833 5.894 22.8574 5.96386 22.9883 6.08903L41.2274 23.516C41.496 23.7736 41.8559 23.9143 42.2281 23.907C42.6003 23.8998 42.9544 23.7452 43.2128 23.4773C43.7525 22.9183 43.7076 21.9955 43.146 21.4585Z" fill="#153147"/>
</svg>
