<svg width="45" height="45" viewBox="0 0 45 45" fill="none" xmlns="http://www.w3.org/2000/svg">
<path d="M7.0293 18.632V39.3742C7.0293 39.7472 7.17746 40.1049 7.44118 40.3686C7.7049 40.6323 8.06259 40.7805 8.43555 40.7805H16.8731V28.8273C16.8731 28.2679 17.0953 27.7314 17.4909 27.3358C17.8865 26.9402 18.423 26.718 18.9824 26.718H26.0137C26.5731 26.718 27.1096 26.9402 27.5052 27.3358C27.9008 27.7314 28.1231 28.2679 28.1231 28.8273V40.7805H36.5606C36.9335 40.7805 37.2912 40.6323 37.5549 40.3686C37.8187 40.1049 37.9668 39.7472 37.9668 39.3742V18.632" stroke="#153147" stroke-width="2.5" stroke-linecap="round" stroke-linejoin="round"/>
<path d="M42.187 22.4984L23.4566 4.56875C23.0172 4.10468 21.9897 4.09941 21.5424 4.56875L2.81201 22.4984" stroke="#153147" stroke-width="2.5" stroke-linecap="round" stroke-linejoin="round"/>
<path d="M35.157 15.7353V5.62372H30.9365V11.6906" stroke="#153147" stroke-width="2.5" stroke-linecap="round" stroke-linejoin="round"/>
</svg>
