<svg width="45" height="45" viewBox="0 0 45 45" fill="none" xmlns="http://www.w3.org/2000/svg">
<path d="M7.03284 8.43792H4.22034C3.44369 8.43792 2.81409 9.06752 2.81409 9.84417V39.3754C2.81409 40.1521 3.44369 40.7817 4.22034 40.7817H7.03284C7.80949 40.7817 8.43909 40.1521 8.43909 39.3754V9.84417C8.43909 9.06752 7.80949 8.43792 7.03284 8.43792Z" stroke="#153147" stroke-width="2.5" stroke-linejoin="round"/>
<path d="M9.84473 19.6876H21.0963" stroke="#153147" stroke-width="2.5" stroke-linecap="round" stroke-linejoin="round"/>
<path d="M9.84473 35.1568H21.0963" stroke="#153147" stroke-width="2.5" stroke-linecap="round" stroke-linejoin="round"/>
<path d="M19.6885 14.0646H11.251C10.4743 14.0646 9.84473 14.6942 9.84473 15.4708V39.3771C9.84473 40.1537 10.4743 40.7833 11.251 40.7833H19.6885C20.4651 40.7833 21.0947 40.1537 21.0947 39.3771V15.4708C21.0947 14.6942 20.4651 14.0646 19.6885 14.0646Z" stroke="#153147" stroke-width="2.5" stroke-linejoin="round"/>
<path d="M29.532 4.21831H23.907C23.1304 4.21831 22.5008 4.84791 22.5008 5.62456V39.3746C22.5008 40.1512 23.1304 40.7808 23.907 40.7808H29.532C30.3087 40.7808 30.9383 40.1512 30.9383 39.3746V5.62456C30.9383 4.84791 30.3087 4.21831 29.532 4.21831Z" stroke="#153147" stroke-width="2.5" stroke-linejoin="round"/>
<path d="M37.1308 8.44843L33.58 8.82196C32.6027 8.9248 31.8943 9.83886 32.0042 10.8522L35.0733 39.117C35.184 40.1304 36.0726 40.8748 37.05 40.7729L40.6007 40.3993C41.5781 40.2965 42.2865 39.3824 42.1766 38.369L39.1119 10.1087C38.9967 9.09091 38.1082 8.3456 37.1308 8.44843Z" stroke="#153147" stroke-width="2.5" stroke-linejoin="round"/>
</svg>
