<svg width="45" height="45" viewBox="0 0 45 45" fill="none" xmlns="http://www.w3.org/2000/svg">
<path d="M5.62622 42.1873H4.21997C3.47405 42.1873 2.75868 41.891 2.23123 41.3636C1.70379 40.8361 1.40747 40.1208 1.40747 39.3748V9.84357C1.40747 9.09765 1.70379 8.38228 2.23123 7.85483C2.75868 7.32739 3.47405 7.03107 4.21997 7.03107H5.62622C6.37214 7.03107 7.08751 7.32739 7.61496 7.85483C8.14241 8.38228 8.43872 9.09765 8.43872 9.84357V39.3748C8.43872 40.1208 8.14241 40.8361 7.61496 41.3636C7.08751 41.891 6.37214 42.1873 5.62622 42.1873Z" fill="#153147"/>
<path d="M21.0963 15.4687C21.0963 14.7227 20.8 14.0072 20.2724 13.4797C19.7449 12.9522 19.0295 12.6558 18.2834 12.6558H12.6576C11.9116 12.6558 11.1961 12.9522 10.6686 13.4797C10.1411 14.0072 9.84473 14.7227 9.84473 15.4687V17.93C9.84473 18.0233 9.88177 18.1127 9.94771 18.1787C10.0137 18.2446 10.1031 18.2816 10.1963 18.2816H20.7447C20.838 18.2816 20.9274 18.2446 20.9933 18.1787C21.0593 18.1127 21.0963 18.0233 21.0963 17.93V15.4687Z" fill="#153147"/>
<path d="M9.84473 39.3743C9.84473 40.1203 10.1411 40.8358 10.6686 41.3633C11.1961 41.8908 11.9116 42.1872 12.6576 42.1872H18.2834C19.0295 42.1872 19.7449 41.8908 20.2724 41.3633C20.8 40.8358 21.0963 40.1203 21.0963 39.3743V36.7372C21.0963 36.6905 21.0778 36.6458 21.0448 36.6129C21.0119 36.5799 20.9671 36.5614 20.9205 36.5614H10.0205C9.97391 36.5614 9.92919 36.5799 9.89622 36.6129C9.86325 36.6458 9.84473 36.6905 9.84473 36.7372V39.3743Z" fill="#153147"/>
<path d="M20.9205 21.0938H10.0205C9.92344 21.0938 9.84473 21.1725 9.84473 21.2696V33.576C9.84473 33.6731 9.92344 33.7518 10.0205 33.7518H20.9205C21.0176 33.7518 21.0963 33.6731 21.0963 33.576V21.2696C21.0963 21.1725 21.0176 21.0938 20.9205 21.0938Z" fill="#153147"/>
<path d="M28.1257 42.1873H25.3132C24.5673 42.1873 23.8519 41.891 23.3245 41.3636C22.797 40.8361 22.5007 40.1207 22.5007 39.3748V5.62482C22.5007 4.8789 22.797 4.16353 23.3245 3.63609C23.8519 3.10864 24.5673 2.81232 25.3132 2.81232H28.1257C28.8717 2.81232 29.587 3.10864 30.1145 3.63609C30.6419 4.16353 30.9382 4.8789 30.9382 5.62482V39.3748C30.9382 40.1207 30.6419 40.8361 30.1145 41.3636C29.587 41.891 28.8717 42.1873 28.1257 42.1873Z" fill="#153147"/>
<path d="M43.5854 39.1502L40.7527 9.26741C40.6227 7.89192 39.2639 6.89436 37.7179 7.04289L34.9185 7.30657C33.3726 7.45334 32.2247 8.68733 32.3548 10.0628L35.1875 39.9456C35.3176 41.3211 36.6764 42.3187 38.2224 42.1702L41.0217 41.9065C42.5677 41.7597 43.7155 40.5257 43.5854 39.1502Z" fill="#153147"/>
</svg>
