<svg width="25" height="25" viewBox="0 0 25 25" fill="none" xmlns="http://www.w3.org/2000/svg">
<path d="M21.6873 1.56348H3.43094C2.43338 1.56348 1.5618 2.28125 1.5618 3.26709V21.564C1.5618 22.5552 2.43338 23.4385 3.43094 23.4385H21.6819C22.6848 23.4385 23.4368 22.5493 23.4368 21.564V3.26709C23.4427 2.28125 22.6848 1.56348 21.6873 1.56348ZM8.34256 19.7974H5.20877V10.0537H8.34256V19.7974ZM6.88406 8.57227H6.8616C5.85867 8.57227 5.20926 7.82568 5.20926 6.89111C5.20926 5.93945 5.87576 5.21045 6.90115 5.21045C7.92654 5.21045 8.55399 5.93408 8.57645 6.89111C8.57596 7.82568 7.92654 8.57227 6.88406 8.57227ZM19.7957 19.7974H16.6619V14.4697C16.6619 13.1934 16.2058 12.3213 15.0721 12.3213C14.2058 12.3213 13.6931 12.9072 13.4651 13.478C13.3797 13.6831 13.3567 13.9624 13.3567 14.2476V19.7974H10.2229V10.0537H13.3567V11.4097C13.8128 10.7603 14.5252 9.82568 16.1829 9.82568C18.24 9.82568 19.7962 11.1816 19.7962 14.105L19.7957 19.7974Z" fill="#153147"/>
</svg>
