<svg width="45" height="45" viewBox="0 0 45 45" fill="none" xmlns="http://www.w3.org/2000/svg">
<path d="M32.3464 36.5515V6.32943C32.3448 5.77049 32.1221 5.2349 31.7268 4.83967C31.3316 4.44444 30.796 4.22168 30.2371 4.22005H6.33081C5.77187 4.22168 5.23628 4.44444 4.84105 4.83967C4.44582 5.2349 4.22306 5.77049 4.22144 6.32943V37.2669C4.22422 38.1985 4.59551 39.0911 5.25421 39.7498C5.91292 40.4085 6.80551 40.7798 7.73706 40.7826H36.5652" stroke="#153147" stroke-width="2.5" stroke-linejoin="round"/>
<path d="M36.5654 40.7811C35.4465 40.7811 34.3735 40.3366 33.5823 39.5454C32.7912 38.7543 32.3467 37.6812 32.3467 36.5623V11.2498H38.6748C39.2342 11.2498 39.7708 11.472 40.1664 11.8676C40.5619 12.2632 40.7842 12.7997 40.7842 13.3592V36.5623C40.7842 37.6812 40.3397 38.7543 39.5485 39.5454C38.7574 40.3366 37.6843 40.7811 36.5654 40.7811Z" stroke="#153147" stroke-width="2.5" stroke-linejoin="round"/>
<path d="M21.0938 11.2498H26.7229" stroke="#153147" stroke-width="2.5" stroke-linecap="round" stroke-linejoin="round"/>
<path d="M21.0938 16.8739H26.7229" stroke="#153147" stroke-width="2.5" stroke-linecap="round" stroke-linejoin="round"/>
<path d="M9.84692 22.5007H26.7243" stroke="#153147" stroke-width="2.5" stroke-linecap="round" stroke-linejoin="round"/>
<path d="M9.84692 28.1265H26.7243" stroke="#153147" stroke-width="2.5" stroke-linecap="round" stroke-linejoin="round"/>
<path d="M9.84692 33.7499H26.7243" stroke="#153147" stroke-width="2.5" stroke-linecap="round" stroke-linejoin="round"/>
<path d="M15.4759 18.2872H9.84674C9.4735 18.2872 9.11555 18.1389 8.85164 17.875C8.58772 17.611 8.43945 17.2531 8.43945 16.8799V11.2507C8.43945 10.8775 8.58772 10.5195 8.85164 10.2556C9.11555 9.99171 9.4735 9.84344 9.84674 9.84344H15.4759C15.8491 9.84344 16.2071 9.99171 16.471 10.2556C16.7349 10.5195 16.8832 10.8775 16.8832 11.2507V16.8799C16.8832 17.2531 16.7349 17.611 16.471 17.875C16.2071 18.1389 15.8491 18.2872 15.4759 18.2872Z" fill="#153147"/>
</svg>
