<svg width="45" height="45" viewBox="0 0 45 45" fill="none" xmlns="http://www.w3.org/2000/svg">
<path d="M38.6649 9.84476H36.5714C36.5693 9.84476 36.5673 9.8456 36.5658 9.84708C36.5643 9.84856 36.5635 9.85058 36.5635 9.85267V36.5635C36.5635 37.3094 36.8598 38.0248 37.3872 38.5523C37.9147 39.0797 38.6301 39.376 39.376 39.376C40.1219 39.376 40.8373 39.0797 41.3647 38.5523C41.8922 38.0248 42.1885 37.3094 42.1885 36.5635V13.3683C42.1885 12.4338 41.8172 11.5376 41.1565 10.8768C40.4957 10.216 39.5994 9.84476 38.6649 9.84476V9.84476Z" fill="#153147"/>
<path d="M33.7534 36.5621V6.32772C33.7534 5.86604 33.6625 5.40888 33.4858 4.98235C33.3091 4.55581 33.0502 4.16825 32.7237 3.8418C32.3973 3.51534 32.0097 3.25638 31.5832 3.07971C31.1566 2.90303 30.6995 2.8121 30.2378 2.8121H6.33154C5.39914 2.8121 4.50493 3.18249 3.84562 3.8418C3.18631 4.50111 2.81592 5.39532 2.81592 6.32772V37.2652C2.81592 38.5706 3.33447 39.8225 4.2575 40.7455C5.18053 41.6685 6.43243 42.1871 7.73779 42.1871H37.8711C37.8844 42.1872 37.8976 42.1847 37.9099 42.1796C37.9222 42.1746 37.9334 42.1672 37.9428 42.1577C37.9522 42.1483 37.9597 42.1372 37.9647 42.1248C37.9698 42.1125 37.9723 42.0993 37.9722 42.086C37.9721 42.0639 37.9648 42.0425 37.9513 42.025C37.9378 42.0075 37.9188 41.995 37.8975 41.9893C36.7079 41.663 35.6583 40.9554 34.9097 39.975C34.1611 38.9946 33.7549 37.7956 33.7534 36.5621V36.5621ZM8.44092 11.2496C8.44092 10.8766 8.58908 10.5189 8.8528 10.2552C9.11652 9.9915 9.47421 9.84335 9.84717 9.84335H15.4722C15.8451 9.84335 16.2028 9.9915 16.4665 10.2552C16.7303 10.5189 16.8784 10.8766 16.8784 11.2496V16.8746C16.8784 17.2476 16.7303 17.6052 16.4665 17.869C16.2028 18.1327 15.8451 18.2808 15.4722 18.2808H9.84717C9.47421 18.2808 9.11652 18.1327 8.8528 17.869C8.58908 17.6052 8.44092 17.2476 8.44092 16.8746V11.2496ZM26.7222 35.1558H9.88672C9.12998 35.1558 8.48047 34.574 8.44268 33.8173C8.43352 33.6271 8.46305 33.4371 8.5295 33.2587C8.59595 33.0803 8.69792 32.9173 8.82924 32.7795C8.96056 32.6417 9.11849 32.532 9.29346 32.457C9.46844 32.382 9.65681 32.3434 9.84717 32.3433H26.6826C27.4394 32.3433 28.0889 32.9252 28.1267 33.6819C28.1358 33.8721 28.1063 34.0621 28.0398 34.2405C27.9734 34.4188 27.8714 34.5819 27.7401 34.7197C27.6088 34.8575 27.4509 34.9672 27.2759 35.0422C27.1009 35.1172 26.9125 35.1558 26.7222 35.1558V35.1558ZM26.7222 29.5308H9.88672C9.12998 29.5308 8.48047 28.949 8.44268 28.1923C8.43352 28.0021 8.46305 27.8121 8.5295 27.6337C8.59595 27.4553 8.69792 27.2923 8.82924 27.1545C8.96056 27.0167 9.11849 26.907 9.29346 26.832C9.46844 26.757 9.65681 26.7184 9.84717 26.7183H26.6826C27.4394 26.7183 28.0889 27.3002 28.1267 28.0569C28.1358 28.2471 28.1063 28.4371 28.0398 28.6155C27.9734 28.7938 27.8714 28.9569 27.7401 29.0947C27.6088 29.2325 27.4509 29.3422 27.2759 29.4172C27.1009 29.4922 26.9125 29.5308 26.7222 29.5308V29.5308ZM26.7222 23.9058H9.88672C9.12998 23.9058 8.48047 23.324 8.44268 22.5673C8.43352 22.3771 8.46305 22.1871 8.5295 22.0087C8.59595 21.8303 8.69792 21.6673 8.82924 21.5295C8.96056 21.3917 9.11849 21.282 9.29346 21.207C9.46844 21.132 9.65681 21.0934 9.84717 21.0933H26.6826C27.4394 21.0933 28.0889 21.6752 28.1267 22.4319C28.1358 22.6221 28.1063 22.8121 28.0398 22.9905C27.9734 23.1688 27.8714 23.3319 27.7401 23.4697C27.6088 23.6075 27.4509 23.7172 27.2759 23.7922C27.1009 23.8672 26.9125 23.9058 26.7222 23.9058V23.9058ZM26.7222 18.2808H21.1367C20.38 18.2808 19.7305 17.699 19.6927 16.9423C19.6835 16.7521 19.7131 16.5621 19.7795 16.3837C19.846 16.2053 19.9479 16.0423 20.0792 15.9045C20.2106 15.7667 20.3685 15.657 20.5435 15.582C20.7184 15.507 20.9068 15.4684 21.0972 15.4683H26.6826C27.4394 15.4683 28.0889 16.0502 28.1267 16.8069C28.1358 16.9971 28.1063 17.1871 28.0398 17.3655C27.9734 17.5438 27.8714 17.7069 27.7401 17.8447C27.6088 17.9825 27.4509 18.0922 27.2759 18.1672C27.1009 18.2422 26.9125 18.2808 26.7222 18.2808V18.2808ZM26.7222 12.6558H21.1367C20.38 12.6558 19.7305 12.074 19.6927 11.3173C19.6835 11.1271 19.7131 10.9371 19.7795 10.7587C19.846 10.5803 19.9479 10.4173 20.0792 10.2795C20.2106 10.1417 20.3685 10.032 20.5435 9.957C20.7184 9.88203 20.9068 9.84336 21.0972 9.84335H26.6826C27.4394 9.84335 28.0889 10.4252 28.1267 11.1819C28.1358 11.3721 28.1063 11.5621 28.0398 11.7405C27.9734 11.9188 27.8714 12.0819 27.7401 12.2197C27.6088 12.3575 27.4509 12.4672 27.2759 12.5422C27.1009 12.6172 26.9125 12.6558 26.7222 12.6558Z" fill="#153147"/>
</svg>
