<svg width="25" height="26" viewBox="0 0 25 26" fill="none" xmlns="http://www.w3.org/2000/svg">
<path d="M10.1131 20.7262C12.3093 20.7262 14.3346 20.016 15.9916 18.8325L22.2251 25.066C22.5145 25.3553 22.8958 25.5 23.3035 25.5C24.1583 25.5 24.7633 24.8425 24.7633 24.0008C24.7633 23.6063 24.6318 23.2249 24.3425 22.9487L18.1483 16.7415C19.4503 15.0318 20.2262 12.9145 20.2262 10.6131C20.2262 5.05024 15.676 0.5 10.1131 0.5C4.56339 0.5 0 5.03709 0 10.6131C0 16.176 4.55024 20.7262 10.1131 20.7262ZM10.1131 18.5431C5.77328 18.5431 2.18306 14.9529 2.18306 10.6131C2.18306 6.27328 5.77328 2.68306 10.1131 2.68306C14.4529 2.68306 18.0431 6.27328 18.0431 10.6131C18.0431 14.9529 14.4529 18.5431 10.1131 18.5431Z" fill="#153147"/>
</svg>
